<?xml version="1.0" standalone="no"?><!DOCTYPE svg PUBLIC "-//W3C//DTD SVG 1.1//EN" "http://www.w3.org/Graphics/SVG/1.1/DTD/svg11.dtd"><svg t="1651547759319" class="icon" viewBox="0 0 1152 1024" version="1.1" xmlns="http://www.w3.org/2000/svg" p-id="1871" xmlns:xlink="http://www.w3.org/1999/xlink" width="225" height="200"><defs><style type="text/css">@font-face { font-family: feedback-iconfont; src: url("//at.alicdn.com/t/font_1031158_u69w8yhxdu.woff2?t=1630033759944") format("woff2"), url("//at.alicdn.com/t/font_1031158_u69w8yhxdu.woff?t=1630033759944") format("woff"), url("//at.alicdn.com/t/font_1031158_u69w8yhxdu.ttf?t=1630033759944") format("truetype"); }
</style></defs><path d="M0 0h819.557074v698.270424H0z" fill="#3F3F3F" p-id="1872"></path><path d="M703.407913 186.138343h116.149161v356.358668h-116.149161z" fill="#CFCFCF" p-id="1873"></path><path d="M212.208369 99.45232h525.198975v501.119271H212.208369z" fill="#F2F2F2" p-id="1874"></path><path d="M737.407344 186.138343h24.079704v356.358668h-24.079704z" opacity=".16" p-id="1875"></path><path d="M289.2616 181.31967h352.74694v335.895246h-352.74694z" fill="#BFCEFF" p-id="1876"></path><path d="M289.2616 517.214916l143.867919-143.867919 111.362368 143.867919z" fill="#E4BC96" p-id="1877"></path><path d="M472.817535 424.621691l169.191005-178.29092v270.884145H544.491887z" fill="#D59758" p-id="1878"></path><path d="M819.557074 186.138343h221.180757v355.370339h-221.180757z" fill="#3B3B3B" p-id="1879"></path><path d="M886.95474 407.751779v-117.233134l265.473384-230.913749v579.060632z" fill="#7A7A7A" p-id="1880"></path><path d="M886.95474 359.501281l265.473384-81.86735V59.604896l-265.473384 230.913749z" fill="#D4D4D4" opacity=".56" p-id="1881"></path><path d="M436.695702 635.113009l68.103615 68.103615-320.769713 320.774267-68.103615-68.103615z" fill="#3F3F3F" p-id="1882"></path><path d="M216.762881 104.006832h520.644463v-4.554512H212.208369v501.123826h4.554512z" fill="#FFFFFF" p-id="1883"></path><path d="M433.129519 373.346997l29.15343 143.867919h82.208938z" fill="#FFFFFF" opacity=".38" p-id="1884"></path><path d="M472.817535 424.621691l169.191005 92.593225H544.491887z" fill="#5A3D1C" opacity=".24" p-id="1885"></path><path d="M294.827213 183.697125h347.181327v-2.377455h-352.74694v335.895246h5.565613z" fill="#5A3D1C" opacity=".32" p-id="1886"></path><path d="M793.828636 955.89183l-68.103615 68.103615L371.374893 669.649872l68.103615-68.103615z" fill="#3F3F3F" p-id="1887"></path></svg>