<?xml version="1.0" standalone="no"?><!DOCTYPE svg PUBLIC "-//W3C//DTD SVG 1.1//EN" "http://www.w3.org/Graphics/SVG/1.1/DTD/svg11.dtd"><svg t="1651546066677" class="icon" viewBox="0 0 1025 1024" version="1.1" xmlns="http://www.w3.org/2000/svg" p-id="1704" xmlns:xlink="http://www.w3.org/1999/xlink" width="200.1953125" height="200"><defs><style type="text/css">@font-face { font-family: feedback-iconfont; src: url("//at.alicdn.com/t/font_1031158_u69w8yhxdu.woff2?t=1630033759944") format("woff2"), url("//at.alicdn.com/t/font_1031158_u69w8yhxdu.woff?t=1630033759944") format("woff"), url("//at.alicdn.com/t/font_1031158_u69w8yhxdu.ttf?t=1630033759944") format("truetype"); }
</style></defs><path d="M1025.340682 683.561834V66.578952C1025.340682 29.958459 995.373947 0 958.753455 0H66.578952C29.962597 0 0 29.962597 0 66.578952v616.982882h1025.340682z" fill="#E3E3E3" p-id="1705"></path><path d="M863.329142 680.230818c0-22.758498-17.86749-46.609404-39.719786-53.002473l-76.865793-22.501948c-21.839882-6.393069-35.308775-29.714323-29.921218-51.823169l18.455073-75.794074c5.391695-22.112984-6.335138-49.514216-26.043998-60.893466l-40.530816-23.395736c-19.708859-11.379249-49.299045-7.828923-65.759646 7.890992l-57.922446 55.319702c-16.460601 15.719915-43.381835 15.719915-59.842436 0L428.770104 402.150937c-16.460601-15.719915-46.046648-19.270241-65.759646-7.890992l-40.526678 23.399874c-19.708859 11.379249-31.427417 38.780481-26.043998 60.893465l18.293695 75.127871c5.383419 22.112984-8.081336 45.4301-29.921218 51.823169l-74.209256 21.724021c-21.839882 6.393069-39.71151 30.243975-39.71151 53.002473v46.803885c0 22.758498 17.871628 46.609404 39.71151 53.002474l74.867183 21.914364c21.839882 6.393069 35.304637 29.714323 29.921218 51.823169l-18.951622 77.825788c-5.383419 22.112984 6.335138 49.514216 26.043998 60.893465l40.526678 23.395736c19.708859 11.379249 49.299045 7.833061 65.759646-7.886854l56.412109-53.87971c16.460601-15.719915 43.385973-15.719915 59.846575 0l57.91417 55.327978c16.464739 15.719915 46.050786 19.266103 65.763784 7.886854l40.530816-23.395736c19.712997-11.379249 31.431555-38.784619 26.043998-60.897603l-19.108863-78.491991c-5.387557-22.112984 8.077198-45.4301 29.921218-51.819031l77.52372-22.692292c21.839882-6.393069 39.715648-30.243975 39.715648-53.002473l-0.004137-46.808023z" fill="#D59758" p-id="1706"></path><path d="M958.765869 0H66.578952C29.962597 0 0 29.962597 0 66.578952v141.17717h1025.340682V66.578952c0-36.616354-29.966735-66.578952-66.574813-66.578952z" fill="#B2B2B2" p-id="1707"></path><path d="M517.110317 705.074822m-82.423004 0a82.423004 82.423004 0 1 0 164.846008 0 82.423004 82.423004 0 1 0-164.846008 0Z" fill="#FFFFFF" p-id="1708"></path><path d="M517.110317 808.18737c-56.859004 0-103.112548-46.257682-103.112548-103.112548s46.257682-103.112548 103.112548-103.112548 103.112548 46.257682 103.112548 103.112548-46.257682 103.112548-103.112548 103.112548z m0-164.846009c-34.042575 0-61.73346 27.690885-61.73346 61.733461s27.695023 61.73346 61.73346 61.73346 61.73346-27.690885 61.733461-61.73346-27.690885-61.73346-61.733461-61.733461z" fill="#5A3D1C" p-id="1709"></path><path d="M86.76367 103.145651m-28.853637 0a28.853638 28.853638 0 1 0 57.707275 0 28.853638 28.853638 0 1 0-57.707275 0Z" fill="#FFFF00" p-id="1710"></path><path d="M179.974203 103.145651m-28.853638 0a28.853638 28.853638 0 1 0 57.707275 0 28.853638 28.853638 0 1 0-57.707275 0Z" fill="#FFFFFF" p-id="1711"></path><path d="M284.282606 103.145651m-28.853637 0a28.853638 28.853638 0 1 0 57.707275 0 28.853638 28.853638 0 1 0-57.707275 0Z" fill="#7AE6FF" p-id="1712"></path></svg>